<svg height="512pt" viewBox="0 0 512 512" width="512pt" xmlns="http://www.w3.org/2000/svg" xmlns:xlink="http://www.w3.org/1999/xlink"><linearGradient id="a" gradientUnits="userSpaceOnUse" x1="0" x2="512" y1="256" y2="256"><stop offset="0" stop-color="#00f38d"/><stop offset="1" stop-color="#009eff"/></linearGradient><path d="m512 256c0 141.386719-114.613281 256-256 256s-256-114.613281-256-256 114.613281-256 256-256 256 114.613281 256 256zm0 0" fill="url(#a)"/><g fill="#fff"><path d="m369.007812 424.007812h-226.015624c-30.328126 0-55-24.671874-55-55v-226.015624c0-30.328126 24.671874-55 55-55h226.015624c30.328126 0 55 24.671874 55 55v226.015624c0 30.328126-24.671874 55-55 55zm-226.015624-306.015624c-13.785157 0-25 11.214843-25 25v226.015624c0 13.785157 11.214843 25 25 25h226.015624c13.785157 0 25-11.214843 25-25v-226.015624c0-13.785157-11.214843-25-25-25zm0 0"/><path d="m231.765625 344.894531-90.480469-86.015625 20.667969-21.746094 68.082031 64.722657 118.523438-132.367188 22.347656 20.015625zm0 0"/></g></svg>